<svg width="18" height="18" viewBox="0 0 18 18" fill="none" xmlns="http://www.w3.org/2000/svg">
<path d="M9.6 4.33333C9.6 4.00196 9.33137 3.73333 9 3.73333C8.66863 3.73333 8.4 4.00196 8.4 4.33333H9.6ZM9 9H8.4C8.4 9.33137 8.66863 9.6 9 9.6V9ZM13.6667 9.6C13.998 9.6 14.2667 9.33137 14.2667 9C14.2667 8.66863 13.998 8.4 13.6667 8.4V9.6ZM16.4 9C16.4 13.0869 13.0869 16.4 9 16.4V17.6C13.7497 17.6 17.6 13.7497 17.6 9H16.4ZM9 16.4C4.91309 16.4 1.6 13.0869 1.6 9H0.4C0.4 13.7497 4.25035 17.6 9 17.6V16.4ZM1.6 9C1.6 4.91309 4.91309 1.6 9 1.6V0.4C4.25035 0.4 0.4 4.25035 0.4 9H1.6ZM9 1.6C13.0869 1.6 16.4 4.91309 16.4 9H17.6C17.6 4.25035 13.7497 0.4 9 0.4V1.6ZM8.4 4.33333V9H9.6V4.33333H8.4ZM9 9.6H13.6667V8.4H9V9.6Z" fill="#2AF399"></path>
</svg>