<svg width="40" height="40" viewBox="0 0 40 40" fill="none" xmlns="http://www.w3.org/2000/svg">
<path fill-rule="evenodd" clip-rule="evenodd" d="M12.0004 11.4004C11.5749 11.4004 11.1675 11.5705 10.8678 11.872C10.5683 12.1733 10.4004 12.5814 10.4004 13.0063V24.071C10.4004 24.4959 10.5683 24.9039 10.8678 25.2053C11.1675 25.5068 11.5749 25.6769 12.0004 25.6769H23.3401C23.6617 25.6769 23.9735 25.7876 24.2232 25.9905L25.3605 26.9149C27.0595 28.296 29.6004 27.0869 29.6004 24.8974V13.0063C29.6004 12.5814 29.4324 12.1733 29.133 11.872C28.8332 11.5705 28.4259 11.4004 28.0004 11.4004H12.0004ZM12.0004 12.6004C11.8955 12.6004 11.7941 12.6423 11.7189 12.7179C11.6434 12.7939 11.6004 12.8976 11.6004 13.0063V24.071C11.6004 24.1797 11.6434 24.2834 11.7189 24.3594C11.7941 24.435 11.8955 24.4769 12.0004 24.4769H23.3401C23.9375 24.4769 24.5165 24.6826 24.98 25.0593L26.1173 25.9837C27.0323 26.7274 28.4004 26.0763 28.4004 24.8974V13.0063C28.4004 12.8976 28.3574 12.7939 28.2819 12.7179C28.2066 12.6423 28.1053 12.6004 28.0004 12.6004H12.0004Z" fill="black"/>
<path d="M15.5004 15.4504C15.169 15.4504 14.9004 15.719 14.9004 16.0504C14.9004 16.3818 15.169 16.6504 15.5004 16.6504H24.5004C24.8318 16.6504 25.1004 16.3818 25.1004 16.0504C25.1004 15.719 24.8318 15.4504 24.5004 15.4504H15.5004Z" fill="black"/>
<path d="M15.5004 19.5004C15.169 19.5004 14.9004 19.769 14.9004 20.1004C14.9004 20.4318 15.169 20.7004 15.5004 20.7004H20.9004C21.2318 20.7004 21.5004 20.4318 21.5004 20.1004C21.5004 19.769 21.2318 19.5004 20.9004 19.5004H15.5004Z" fill="black"/>
</svg>
