<svg width="40" height="40" viewBox="0 0 40 40" fill="none" xmlns="http://www.w3.org/2000/svg">
<path fill-rule="evenodd" clip-rule="evenodd" d="M16.4831 7.071C16.6782 7.1754 16.8 7.3787 16.8 7.6V9.4C16.8 9.7314 16.5314 10 16.2 10C15.8686 10 15.6 9.7314 15.6 9.4V8.72108L14.5359 9.4305C13.7013 9.9869 13.2 10.9236 13.2 11.9267V16C13.2 18.3196 15.0804 20.2 17.4 20.2H22.2C24.5196 20.2 26.4 18.3196 26.4 16V11.9267C26.4 10.9236 25.8987 9.9869 25.0641 9.4305L24 8.72108V9.4C24 9.7314 23.7314 10 23.4 10C23.0686 10 22.8 9.7314 22.8 9.4V7.6C22.8 7.3787 22.9218 7.1754 23.1169 7.071C23.312 6.9666 23.5487 6.978 23.7328 7.1008L25.7297 8.4321C26.8982 9.211 27.6 10.5224 27.6 11.9267V16C27.6 18.9823 25.1823 21.4 22.2 21.4H20.4V28C20.4 28.5235 20.535 29.3088 20.9145 29.9413C21.2752 30.5425 21.8455 31 22.8 31C23.4718 31 23.9158 30.8657 24.2174 30.6781C24.5135 30.4938 24.7219 30.2274 24.8712 29.8692C25.1588 29.1788 25.1951 28.2463 25.1994 27.1601C24.1647 26.8936 23.4 25.9546 23.4 24.8364C23.4 23.5111 24.4743 22.4358 25.8 22.4358C27.1255 22.4358 28.2 23.5103 28.2 24.8358C28.2 25.9542 27.4351 26.8939 26.3998 27.1602C26.3974 28.2294 26.3659 29.4019 25.9788 30.3308C25.7531 30.8726 25.399 31.3562 24.8514 31.6969C24.3092 32.0343 23.6282 32.2 22.8 32.2C21.3545 32.2 20.4248 31.4575 19.8855 30.5587C19.365 29.6912 19.2 28.6765 19.2 28V21.4H17.4C14.4177 21.4 12 18.9823 12 16V11.9267C12 10.5224 12.7018 9.211 13.8703 8.4321L15.8672 7.1008C16.0513 6.978 16.288 6.9666 16.4831 7.071ZM25.8 26.0358C26.4627 26.0358 27 25.4986 27 24.8358C27 24.1731 26.4627 23.6358 25.8 23.6358C25.1375 23.6358 24.6 24.1734 24.6 24.8364C24.6 25.4989 25.137 26.0358 25.8 26.0358Z" fill="black"/>
</svg>
