<svg width="40" height="40" viewBox="0 0 40 40" fill="none" xmlns="http://www.w3.org/2000/svg">
<path d="M13.882 23H8.5C8.224 23 8 22.776 8 22.5C8 22.224 8.224 22 8.5 22H13.882C14.073 22 14.244 21.894 14.329 21.724L15.377 19.628C15.586 19.209 16.004 18.964 16.475 18.989C16.943 19.014 17.335 19.301 17.499 19.739L19.438 24.909C19.468 24.99 19.531 25.01 19.578 25.012C19.632 25.015 19.69 25.002 19.728 24.925L20.776 22.829C21.032 22.318 21.546 22 22.118 22H26.5C26.776 22 27 22.224 27 22.5C27 22.776 26.776 23 26.5 23H22.118C21.927 23 21.756 23.106 21.671 23.276L20.623 25.372C20.423 25.771 20.031 26.013 19.59 26.013C19.569 26.013 19.547 26.013 19.526 26.011C19.058 25.986 18.666 25.699 18.502 25.261L16.563 20.091C16.533 20.01 16.47 19.99 16.423 19.988C16.374 19.993 16.311 19.999 16.273 20.075L15.225 22.171C14.969 22.682 14.454 23 13.882 23ZM30 17.985V27.5C30 29.981 27.981 32 25.5 32H14.5C12.019 32 10 29.981 10 27.5V25.5C10 25.224 10.224 25 10.5 25C10.776 25 11 25.224 11 25.5V27.5C11 29.43 12.57 31 14.5 31H25.5C27.43 31 29 29.43 29 27.5V17.985C29 17.65 28.962 17.322 28.904 17H23.5C22.122 17 21 15.878 21 14.5V9.096C20.677 9.038 20.349 9 20.015 9H14.5C12.57 9 11 10.57 11 12.5V19.5C11 19.776 10.776 20 10.5 20C10.224 20 10 19.776 10 19.5V12.5C10 10.019 12.019 8 14.5 8H20.015C21.751 8 23.384 8.676 24.611 9.904L28.096 13.389C29.324 14.617 30 16.249 30 17.985ZM28.621 16C28.348 15.296 27.939 14.646 27.39 14.096L23.905 10.611C23.355 10.061 22.705 9.652 22.001 9.38V14.501C22.001 15.328 22.674 16.001 23.501 16.001H28.622L28.621 16Z" fill="black"/>
</svg>
