<svg width="24" height="24" viewBox="0 0 24 24" fill="none" xmlns="http://www.w3.org/2000/svg">
<path fill-rule="evenodd" clip-rule="evenodd" d="M15.6493 18.1504H19.2668L19.2691 18.1504C20.3226 18.1471 21.1542 16.9666 20.5473 15.939C20.0204 15.0486 19.3545 13.3133 19.3545 10.2001C19.3545 6.10857 16.6119 2.28369 12.0516 2.24989L12.0502 2.24988C7.38929 2.2245 4.64565 6.07708 4.64565 10.2001C4.64565 13.3133 3.98001 15.0481 3.45319 15.9385C2.86547 16.9339 3.64021 18.147 4.73104 18.1504L4.73337 18.1504H8.3511C8.44476 18.9281 8.69184 19.6927 9.14077 20.3237C9.75623 21.1888 10.7182 21.7503 12.0002 21.7503C13.2822 21.7503 14.2442 21.1888 14.8596 20.3238C15.3086 19.6928 15.5557 18.9281 15.6493 18.1504ZM12.0413 3.74985C8.41891 3.73052 6.14565 6.68627 6.14565 10.2001C6.14565 13.4822 5.45242 15.481 4.77456 16.6504H19.2256C18.5477 15.481 17.8545 13.4822 17.8545 10.2001C17.8545 6.71895 15.5783 3.77649 12.0413 3.74985ZM14.1349 18.1504H9.86555C9.94844 18.6592 10.1175 19.109 10.363 19.4542C10.7016 19.93 11.2113 20.2503 12.0002 20.2503C12.7891 20.2503 13.2989 19.93 13.6374 19.4542C13.883 19.109 14.052 18.6593 14.1349 18.1504Z" fill="black"/>
</svg>
