<svg width="24" height="24" viewBox="0 0 24 24" fill="none" xmlns="http://www.w3.org/2000/svg">
<path fill-rule="evenodd" clip-rule="evenodd" d="M10.6708 3.25C6.57239 3.25 3.25 6.57239 3.25 10.6708C3.25 14.7691 6.57239 18.0915 10.6708 18.0915C12.4497 18.0915 14.0825 17.4655 15.3608 16.4218L19.4693 20.5304C19.7622 20.8233 20.2371 20.8233 20.53 20.5304C20.8229 20.2375 20.8229 19.7626 20.53 19.4697L16.4215 15.3612C17.4654 14.0828 18.0915 12.4499 18.0915 10.6708C18.0915 6.57239 14.7691 3.25 10.6708 3.25ZM14.9123 14.8017C15.9514 13.735 16.5915 12.2776 16.5915 10.6708C16.5915 7.40081 13.9407 4.75 10.6708 4.75C7.40081 4.75 4.75 7.40081 4.75 10.6708C4.75 13.9407 7.40081 16.5915 10.6708 16.5915C12.2775 16.5915 13.7347 15.9515 14.8014 14.9126C14.8177 14.8925 14.8352 14.873 14.8539 14.8543C14.8727 14.8356 14.8921 14.8181 14.9123 14.8017Z" fill="black"/>
</svg>
