<svg width="24" height="24" viewBox="0 0 24 24" fill="none" xmlns="http://www.w3.org/2000/svg">
<path d="M6.75 9.05C6.75 8.63579 7.08579 8.3 7.5 8.3H16.5C16.9142 8.3 17.25 8.63579 17.25 9.05C17.25 9.46421 16.9142 9.8 16.5 9.8H7.5C7.08579 9.8 6.75 9.46421 6.75 9.05Z" fill="black"/>
<path d="M6.75 13.1C6.75 12.6858 7.08579 12.35 7.5 12.35H12.9C13.3142 12.35 13.65 12.6858 13.65 13.1C13.65 13.5142 13.3142 13.85 12.9 13.85H7.5C7.08579 13.85 6.75 13.5142 6.75 13.1Z" fill="black"/>
<path fill-rule="evenodd" clip-rule="evenodd" d="M2.76101 4.76584C3.08885 4.43608 3.53443 4.25 4 4.25H20C20.4655 4.25 20.9112 4.43605 21.239 4.7659C21.5666 5.09545 21.75 5.54153 21.75 6.00588V17.897C21.75 20.2128 19.0626 21.4917 17.2655 20.0309C17.2654 20.0309 17.2655 20.0309 17.2655 20.0309L16.1282 19.1065C15.9053 18.9254 15.6269 18.8265 15.3397 18.8265H4C3.5344 18.8265 3.08886 18.6404 2.76107 18.3107C2.43351 17.9811 2.25 17.535 2.25 17.0706V6.00588C2.25 5.5416 2.43333 5.09546 2.76101 4.76584ZM3.82478 5.82338C3.87202 5.77588 3.93513 5.75 4 5.75ZM4 5.75H20ZM20 5.75C20.0649 5.75 20.128 5.77591 20.1752 5.82334ZM3.82478 5.82338C3.77741 5.87105 3.75 5.93662 3.75 6.00588V17.0706C3.75 17.1398 3.77731 17.2053 3.82471 17.2531C3.872 17.3006 3.93516 17.3265 4 17.3265H15.3397C15.9715 17.3265 16.5839 17.544 17.0742 17.9425L18.2116 18.8669C19.0284 19.5309 20.25 18.9496 20.25 17.897V6.00588C20.25 5.93669 20.2226 5.87107 20.1752 5.82334" fill="black"/>
</svg>
