<svg width="24" height="24" viewBox="0 0 24 24" fill="none" xmlns="http://www.w3.org/2000/svg">
<path d="M17.511 16.5958C17.9015 16.9863 17.9015 17.6195 17.511 18.01C17.1204 18.4005 16.4873 18.4005 16.0968 18.01L11.5007 13.4139L6.90454 18.01C6.51402 18.4005 5.88086 18.4005 5.49033 18.01C5.09979 17.6195 5.09981 16.9863 5.49033 16.5958L10.0864 11.9997L5.49017 7.4034C5.09963 7.01287 5.09963 6.37973 5.49017 5.98919C5.8807 5.59866 6.51385 5.59866 6.90438 5.98919L11.5007 10.5855L16.0969 5.98919C16.4875 5.59866 17.1206 5.59866 17.5111 5.98919C17.9017 6.37973 17.9017 7.01287 17.5111 7.4034L12.9149 11.9997L17.511 16.5958Z" fill="black"/>
</svg>
