<svg width="24" height="24" viewBox="0 0 24 24" fill="none" xmlns="http://www.w3.org/2000/svg">
<path fill-rule="evenodd" clip-rule="evenodd" d="M3 6C3 5.44772 3.44772 5 4 5H19C19.5523 5 20 5.44772 20 6C20 6.55228 19.5523 7 19 7H4C3.44772 7 3 6.55228 3 6ZM3 12C3 11.4477 3.44772 11 4 11H19C19.5523 11 20 11.4477 20 12C20 12.5523 19.5523 13 19 13H4C3.44772 13 3 12.5523 3 12ZM3 18C3 17.4477 3.44772 17 4 17H19C19.5523 17 20 17.4477 20 18C20 18.5523 19.5523 19 19 19H4C3.44772 19 3 18.5523 3 18Z" fill="black"/>
</svg>
