<svg width="64" height="64" viewBox="0 0 64 64" fill="none" xmlns="http://www.w3.org/2000/svg">
<circle cx="32" cy="32" r="27" stroke="white" stroke-width="0.7"/>
<path d="M44.3314 49C49.5845 45.1829 53 38.9903 53 32C53 20.402 43.598 11 32 11C27.8044 11 23.8962 12.2304 20.6165 14.35M26.5 52.2724C17.5697 49.8554 11 41.6949 11 32C11 30.277 11.2075 28.6024 11.5989 27" stroke="white" stroke-width="0.7" stroke-linecap="round"/>
<path fill-rule="evenodd" clip-rule="evenodd" d="M45.2045 25.4756C46.5939 25.4748 47.9373 25.9735 48.9897 26.8808C50.042 27.788 50.7332 29.0433 50.9372 30.4178C51.1412 31.7922 50.8444 33.1942 50.1009 34.368C49.3573 35.5418 48.2167 36.4093 46.887 36.8121V42.0435C46.887 49.1824 41.0123 55 33.8051 55C26.598 55 20.7246 49.1824 20.7246 42.0435V35.9021C18.554 35.4954 16.5939 34.3427 15.1833 32.6434C13.7727 30.9442 13.0004 28.8053 13 26.5968L13 20.6792C13.0007 20.0349 13.2569 19.4172 13.7124 18.9616C14.168 18.5061 14.7856 18.2498 15.4299 18.2492H17.4848V17.8741C17.4842 17.7455 17.5104 17.6181 17.5619 17.5001C17.6133 17.3822 17.6888 17.2763 17.7835 17.1891C17.8743 17.1055 17.9864 17.0486 18.1075 17.0248C18.2287 17.0009 18.354 17.0111 18.4697 17.0541C19.0559 17.2569 19.5642 17.6376 19.9236 18.1432C20.283 18.6487 20.4756 19.2539 20.4746 19.8742C20.473 20.4941 20.28 21.0984 19.922 21.6044C19.5641 22.1105 19.0586 22.4938 18.4747 22.7018C18.3977 22.7255 18.3178 22.7381 18.2372 22.7393C18.0657 22.7367 17.9012 22.6703 17.776 22.553C17.6852 22.4633 17.6132 22.3564 17.564 22.2386C17.5149 22.1208 17.4897 21.9944 17.4898 21.8667V21.4917H16.4898V26.5968C16.4898 28.1829 17.1198 29.7039 18.2412 30.8254C19.3626 31.9469 20.8836 32.577 22.4695 32.577C24.0554 32.577 25.5764 31.9469 26.6978 30.8254C27.8192 29.7039 28.4492 28.1829 28.4492 26.5968V21.488H27.4492V21.8492C27.45 21.9781 27.4238 22.1058 27.3724 22.2239C27.3209 22.3421 27.2454 22.4482 27.1505 22.5355C27.0939 22.5984 27.0247 22.6486 26.9474 22.6829C26.8701 22.7171 26.7864 22.7346 26.7018 22.7343C26.6256 22.7341 26.5501 22.7214 26.478 22.6968C25.8899 22.4944 25.3794 22.1137 25.0177 21.6078C24.6559 21.1018 24.4607 20.4957 24.4593 19.8736C24.458 19.2516 24.6504 18.6446 25.01 18.1371C25.3695 17.6295 25.8783 17.2466 26.4655 17.0416C26.5811 16.9987 26.7064 16.9887 26.8273 17.0128C26.9482 17.0369 27.0601 17.094 27.1505 17.1779C27.2452 17.265 27.3207 17.3709 27.3721 17.4889C27.4236 17.6068 27.4498 17.7342 27.4492 17.8629V18.2492H29.5054C30.1498 18.2495 30.7678 18.5056 31.2236 18.9612C31.6794 19.4168 31.9358 20.0347 31.9365 20.6792V26.5968C31.9361 28.8053 31.1638 30.9442 29.7532 32.6434C28.3426 34.3427 26.3825 35.4954 24.2119 35.9021V41.9197C24.2119 44.4642 25.2226 46.9044 27.0217 48.7037C28.8208 50.5029 31.2609 51.5137 33.8051 51.5137C36.3494 51.5137 38.7895 50.5029 40.5886 48.7037C42.3877 46.9044 43.3984 44.4642 43.3984 41.9197V36.7746C42.0891 36.3449 40.9757 35.4626 40.2583 34.2861C39.5408 33.1095 39.2662 31.7157 39.4837 30.3548C39.7013 28.994 40.3967 27.7553 41.4452 26.861C42.4937 25.9668 43.8265 25.4756 45.2045 25.4756ZM25.4581 19.8742C25.459 20.225 25.5518 20.5694 25.7272 20.8732C25.9027 21.1769 26.1546 21.4294 26.458 21.6055V18.1379C26.1529 18.3132 25.8996 18.5662 25.724 18.8712C25.5483 19.1762 25.4566 19.5222 25.4581 19.8742ZM19.4784 19.8617C19.4761 19.5129 19.3826 19.1707 19.2072 18.8692C19.0318 18.5677 18.7805 18.3173 18.4785 18.1429V21.593C18.7831 21.4171 19.036 21.1639 19.2115 20.8591C19.3871 20.5543 19.4791 20.2085 19.4784 19.8567V19.8617ZM21.7208 38.5559H23.2207V35.4908C23.2229 35.3644 23.2708 35.243 23.3556 35.1492C23.4404 35.0554 23.5564 34.9956 23.6819 34.9808C25.698 34.6896 27.5418 33.682 28.8757 32.1423C30.2096 30.6027 30.9443 28.634 30.9453 26.5968V20.6792C30.9423 20.2996 30.7897 19.9364 30.5206 19.6687C30.2514 19.4009 29.8875 19.2502 29.5079 19.2492H27.4517V20.4992H28.9517C29.0843 20.4992 29.2114 20.5519 29.3052 20.6457C29.399 20.7394 29.4516 20.8666 29.4516 20.9992V26.5968C29.4516 28.4474 28.7165 30.2222 27.4081 31.5308C26.0996 32.8394 24.3249 33.5745 22.4745 33.5745C20.624 33.5745 18.8494 32.8394 17.5409 31.5308C16.2325 30.2222 15.4974 28.4474 15.4974 26.5968V20.9905C15.4974 20.8579 15.55 20.7307 15.6438 20.6369C15.7376 20.5431 15.8647 20.4905 15.9973 20.4905H17.4973V19.2492H15.4299C15.0515 19.2521 14.6895 19.4037 14.422 19.6713C14.1545 19.9388 14.0029 20.3009 13.9999 20.6792V26.5968C14.001 28.634 14.7357 30.6027 16.0696 32.1423C17.4034 33.682 19.2472 34.6896 21.2633 34.9808C21.389 34.9953 21.5051 35.0551 21.5899 35.1489C21.6748 35.2428 21.7226 35.3643 21.7245 35.4908L21.7208 38.5559ZM42.3272 50.4999C43.4546 49.3984 44.3505 48.0827 44.9623 46.6301C45.574 45.1775 45.8893 43.6172 45.8895 42.041V37.0233C45.6621 37.0487 45.4334 37.0612 45.2045 37.0608C44.9334 37.0591 44.6628 37.0382 44.3946 36.9983V41.9197C44.3946 44.7284 43.2789 47.4221 41.293 49.4081C39.3071 51.3942 36.6136 52.5099 33.8051 52.5099C30.9967 52.5099 28.3032 51.3942 26.3173 49.4081C24.3314 47.4221 23.2157 44.7284 23.2157 41.9197V39.5521H21.7158V42.0435C21.7172 43.6197 22.0337 45.1797 22.6465 46.6319C23.2593 48.0841 24.1562 49.3992 25.2843 50.4999C27.5538 52.7423 30.6155 53.9998 33.8058 53.9998C36.9961 53.9998 40.0578 52.7423 42.3272 50.4999ZM40.4085 31.2682C40.4083 32.2172 40.6895 33.1449 41.2165 33.9341C41.7435 34.7232 42.4928 35.3384 43.3694 35.7016C44.246 36.0649 45.2107 36.16 46.1414 35.9749C47.0721 35.7899 47.927 35.3329 48.598 34.6619C49.2689 33.9908 49.7259 33.1359 49.9109 32.2051C50.096 31.2744 50.0009 30.3096 49.6376 29.4329C49.2744 28.5562 48.6593 27.8069 47.8702 27.2799C47.0811 26.7528 46.1535 26.4716 45.2045 26.4718C43.9334 26.4745 42.715 26.9807 41.8162 27.8796C40.9173 28.7785 40.4112 29.9969 40.4085 31.2682ZM42.6234 31.1245C42.6234 30.63 42.77 30.1466 43.0447 29.7355C43.3194 29.3244 43.7098 29.0039 44.1666 28.8147C44.6234 28.6255 45.1261 28.576 45.611 28.6724C46.0959 28.7689 46.5414 29.007 46.891 29.3566C47.2406 29.7063 47.4787 30.1518 47.5751 30.6367C47.6716 31.1217 47.6221 31.6244 47.4329 32.0812C47.2437 32.538 46.9233 32.9285 46.5121 33.2032C46.1011 33.4779 45.6177 33.6245 45.1233 33.6245C44.4609 33.6225 43.8262 33.3585 43.3578 32.8901C42.8894 32.4217 42.6254 31.7869 42.6234 31.1245ZM43.6234 31.1245C43.6234 31.4211 43.7113 31.7111 43.8762 31.9578C44.041 32.2045 44.2752 32.3968 44.5493 32.5103C44.8234 32.6238 45.125 32.6535 45.4159 32.5957C45.7069 32.5378 45.9741 32.3949 46.1839 32.1851C46.3937 31.9754 46.5365 31.7081 46.5944 31.4171C46.6523 31.1261 46.6226 30.8245 46.509 30.5504C46.3955 30.2763 46.2033 30.042 45.9566 29.8772C45.7099 29.7124 45.42 29.6244 45.1233 29.6244C44.7255 29.6244 44.344 29.7825 44.0627 30.0638C43.7814 30.3451 43.6234 30.7266 43.6234 31.1245Z" fill="white"/>
</svg>
