<svg width="64" height="64" viewBox="0 0 64 64" fill="none" xmlns="http://www.w3.org/2000/svg">
<path fill-rule="evenodd" clip-rule="evenodd" d="M41.8465 24.1936H50.8804C51.1768 24.1936 51.4612 24.3112 51.671 24.5206C51.8809 24.73 51.9992 25.0141 52 25.3106V37.7199C51.9992 38.0173 51.8812 38.3023 51.6716 38.5131C51.462 38.724 51.1777 38.8435 50.8804 38.8459H41.8465V42.7555C41.8457 43.0523 41.7275 43.3367 41.5177 43.5466C41.3079 43.7565 41.0236 43.8747 40.7269 43.8755H38.8115V50.9135C38.8107 51.2106 38.6926 51.4953 38.4829 51.7057C38.2731 51.916 37.9888 52.0349 37.6919 52.0365H25.2962C24.9988 52.0357 24.7137 51.9171 24.5033 51.7067C24.293 51.4963 24.1745 51.2111 24.1737 50.9135V43.8666H22.2642C21.967 43.8666 21.6819 43.7487 21.4714 43.5388C21.261 43.3288 21.1424 43.0439 21.1416 42.7466V38.837H12.1107C11.8163 38.8331 11.5351 38.714 11.3275 38.5051C11.1199 38.2963 11.0023 38.0144 11 37.7199V25.3106C11.0004 25.1635 11.0297 25.018 11.0864 24.8822C11.143 24.7465 11.2258 24.6233 11.33 24.5195C11.4343 24.4158 11.5579 24.3336 11.6939 24.2777C11.8299 24.2218 11.9755 24.1932 12.1226 24.1936H21.1535V20.281C21.1535 19.9829 21.2717 19.6969 21.4821 19.4858C21.6925 19.2748 21.978 19.1558 22.276 19.155H24.1856V12.117C24.1879 11.8205 24.3071 11.5368 24.5173 11.3277C24.7275 11.1185 25.0117 11.0008 25.3081 11H37.7038C37.9999 11.0008 38.2838 11.1186 38.4935 11.3279C38.7032 11.5371 38.8218 11.8208 38.8233 12.117V19.155H40.7388C41.0363 19.1566 41.321 19.2759 41.5308 19.4869C41.7406 19.6979 41.8584 19.9834 41.8584 20.281L41.8465 24.1936Z" fill="white"/>
<path fill-rule="evenodd" clip-rule="evenodd" d="M25.2992 12.117H37.6948V25.3106H50.8804V37.711H37.6948V50.9046H25.2992V37.711H12.1107V25.3106H25.2992V12.117Z" fill="#DF091A"/>
<path fill-rule="evenodd" clip-rule="evenodd" d="M29.3677 27.619H33.6174V20.281C33.622 19.8942 33.7772 19.5244 34.0501 19.2504C34.3229 18.9763 34.6919 18.8195 35.0785 18.8134H40.721C41.1076 18.8195 41.4766 18.9763 41.7494 19.2504C42.0223 19.5244 42.1775 19.8942 42.1821 20.281V42.7466C42.1821 43.1343 42.0282 43.506 41.7541 43.7802C41.4801 44.0543 41.1085 44.2083 40.721 44.2083H35.0785C34.691 44.2083 34.3194 44.0543 34.0454 43.7802C33.7713 43.506 33.6174 43.1343 33.6174 42.7466V35.0907H29.3677V42.7466C29.3677 43.1343 29.2138 43.506 28.9398 43.7802C28.6658 44.0543 28.2941 44.2083 27.9066 44.2083H22.2642C21.8764 44.2083 21.5044 44.0544 21.23 43.7803C20.9555 43.5063 20.8009 43.1345 20.8001 42.7466V20.281C20.8047 19.8937 20.9603 19.5235 21.2338 19.2494C21.5073 18.9752 21.877 18.8188 22.2642 18.8134H27.9066C28.2932 18.8195 28.6622 18.9763 28.9351 19.2504C29.2079 19.5244 29.3631 19.8942 29.3677 20.281V27.619Z" fill="white"/>
<path fill-rule="evenodd" clip-rule="evenodd" d="M22.2642 20.278V42.7466H27.9096V33.632H35.0815V42.7466H40.7269V20.278H35.0815V29.0717H27.9096V20.278H22.2642Z" fill="#12448D"/>
</svg>
