<svg width="2318" height="3940" viewBox="0 0 2318 3940" fill="none" xmlns="http://www.w3.org/2000/svg">
<rect width="2318" height="3940" rx="40" fill="url(#paint0_linear_601_2)"/>
<path fill-rule="evenodd" clip-rule="evenodd" d="M1445.47 2007.94H1439.89C1440.51 2016.85 1444.85 2021.01 1453.28 2021.01C1461.7 2021.01 1465.93 2017.01 1466.63 2007.94H1461.04C1460.86 2011.94 1458.34 2013.94 1453.28 2013.94C1448.21 2013.94 1445.81 2012.08 1445.47 2007.94ZM1461.48 2027.82L1449.85 2047.32L1448.35 2049.92L1446.35 2054.45L1446.79 2052.63L1447.15 2046.62V2027.84H1432.18V2075.07H1447.15L1461.16 2052.65L1463.44 2048.1L1462.98 2050.36L1462.3 2057.85V2075.07H1477.25V2027.82H1461.48ZM1406.52 2027.82L1394.83 2047.32L1393.37 2049.92L1391.37 2054.45L1391.83 2052.63L1392.17 2046.62V2027.84H1377.22V2075.07H1392.17L1406.18 2052.65L1408.44 2048.1L1408.02 2050.36L1407.32 2057.85V2075.07H1422.29V2027.82H1406.52ZM1322.26 2028.16V2074.91H1337.49V2053.15L1349.94 2074.91H1368.19L1350.72 2049.74L1366.37 2028.1H1348.88L1337.47 2047.6V2028.1L1322.26 2028.16ZM1313.65 2068L1304.33 2057.99C1303.4 2059.6 1302.07 2060.93 1300.47 2061.86C1298.87 2062.78 1297.05 2063.27 1295.2 2063.28C1289.2 2063.28 1284.51 2058.59 1284.51 2051.65C1284.51 2044.7 1289.2 2039.89 1295.2 2039.89C1296.81 2039.91 1298.4 2040.28 1299.86 2040.98C1301.32 2041.67 1302.61 2042.66 1303.65 2043.9L1312.69 2033.89C1307.68 2029.27 1301.05 2026.8 1294.24 2027.02C1279.21 2027.02 1269.08 2037.03 1269.08 2051.59C1269.08 2066.14 1279.21 2076.03 1294.24 2076.03C1297.86 2076.14 1301.45 2075.47 1304.79 2074.09C1308.14 2072.71 1311.15 2070.63 1313.63 2068H1313.65ZM1232.65 2045.22V2027.96H1217.3V2075.25H1232.69V2057.67H1245.12V2075.25H1260.54V2028.1H1245.06V2045.26L1232.65 2045.22ZM1192.17 2027.82L1180.48 2047.32L1179 2049.92L1176.99 2054.45L1177.43 2052.63L1177.79 2046.62V2027.84H1162.8V2075.07H1177.79L1191.8 2052.65L1194.07 2048.1L1193.65 2050.36L1192.95 2057.85V2075.07H1207.9V2027.82H1192.17ZM1120.99 2062.7V2027.9H1105.86V2075.05H1141.01V2085.88H1155.02V2062.62H1148.83V2027.96H1133.54V2062.7H1120.99ZM1080.4 2027.82L1068.73 2047.32L1067.25 2049.92L1065.25 2054.45L1065.71 2052.63L1066.05 2046.62V2027.84H1051.08V2075.07H1066.05L1080.06 2052.65L1082.32 2048.1L1081.9 2050.36L1081.18 2057.85V2075.07H1096.17V2027.82H1080.4ZM1022.36 2062.56H1012.55C1014.73 2058.35 1017.06 2047.48 1018.28 2039.73H1022.36V2062.56ZM1043.06 2062.56H1036.81V2028.34H1006.79C1005.23 2041.45 1000.54 2054.99 998.022 2062.62H993.739V2085.36H1008.21V2074.81H1028.73V2085.36H1043.08L1043.06 2062.56ZM973.985 2047.78H953.97C953.964 2046.51 954.214 2045.25 954.705 2044.08C955.196 2042.91 955.917 2041.84 956.827 2040.96C957.736 2040.07 958.815 2039.37 959.999 2038.91C961.183 2038.45 962.447 2038.23 963.717 2038.27C969.462 2038.33 973.204 2041.83 974.005 2047.84L973.985 2047.78ZM988.335 2062.14L973.625 2059.27C972.732 2060.88 971.398 2062.2 969.781 2063.07C968.164 2063.94 966.33 2064.34 964.498 2064.2C963.212 2064.29 961.92 2064.13 960.7 2063.71C959.481 2063.29 958.359 2062.62 957.405 2061.76C956.45 2060.89 955.681 2059.84 955.146 2058.66C954.61 2057.49 954.319 2056.22 954.29 2054.93H989.436V2053.79C989.436 2036.81 979.789 2026.96 963.797 2026.96C948.566 2026.96 938.479 2036.97 938.479 2051.77C938.479 2066.14 948.646 2075.97 964.318 2075.97C975.646 2076.03 984.332 2070.89 988.335 2062.14ZM903.913 2050.12L893.205 2027.68H875.653V2074.91H889.803V2059.25L889.383 2052.29L889.203 2048.98L903.813 2077.99L918.704 2049.16L918.284 2052.53L918.104 2059.25L917.924 2075.05H932.474V2027.82H915.422L914.981 2028.24L903.913 2050.12Z" fill="white"/>
<path fill-rule="evenodd" clip-rule="evenodd" d="M1750.2 2034.51V2028.1H1735.14V2092.17H1749.75V2068.38C1751.52 2072.83 1756.54 2075.77 1763.16 2075.77C1766.19 2075.77 1769.17 2075.13 1771.93 2073.9C1774.69 2072.67 1777.16 2070.87 1779.18 2068.62C1783.04 2063.72 1785.09 2057.63 1785 2051.39C1784.9 2045.15 1782.66 2039.13 1778.66 2034.35C1776.62 2032.13 1774.14 2030.37 1771.39 2029.17C1768.63 2027.97 1765.65 2027.36 1762.64 2027.38C1756.38 2027.38 1751.94 2030.1 1750.2 2034.51ZM1759.66 2038.95C1765.09 2038.95 1769.51 2043.82 1769.51 2051.49C1769.51 2059.15 1765.09 2064.2 1759.66 2064.2C1754.24 2064.2 1749.85 2059.15 1749.85 2051.49C1749.85 2043.82 1754.36 2038.95 1759.66 2038.95ZM1727.06 2040.27V2028.1H1688.07V2040.31H1699.72L1700.06 2040.55V2075.03H1715.47V2040.27H1727.06ZM1653.6 2045.22V2027.96H1638.29V2075.25H1653.68V2057.67H1666.13V2075.25H1681.44V2028.1H1665.95V2045.26L1653.6 2045.22ZM1613.86 2047.84H1593.84C1593.84 2046.57 1594.09 2045.31 1594.58 2044.14C1595.07 2042.97 1595.79 2041.91 1596.7 2041.02C1597.61 2040.14 1598.69 2039.44 1599.87 2038.98C1601.06 2038.52 1602.32 2038.3 1603.59 2038.33C1609.31 2038.33 1613.05 2041.83 1613.86 2047.84ZM1628.11 2062.2L1613.39 2059.33C1612.24 2061.18 1610.55 2062.62 1608.54 2063.46C1606.54 2064.3 1604.32 2064.49 1602.2 2064.01C1600.08 2063.54 1598.16 2062.41 1596.7 2060.8C1595.25 2059.18 1594.33 2057.15 1594.08 2054.99H1629.23V2053.85C1629.23 2036.87 1619.58 2027.02 1603.59 2027.02C1588.36 2027.02 1578.23 2037.03 1578.23 2051.83C1578.23 2066.2 1588.44 2076.03 1604.11 2076.03C1615.5 2076.03 1624.2 2070.89 1628.11 2062.14V2062.2ZM1539.54 2062.7V2027.9H1524.39V2075.05H1559.54V2085.88H1573.55V2062.62H1567.38V2027.96H1552.05V2062.7H1539.54Z" fill="white"/>
<path fill-rule="evenodd" clip-rule="evenodd" d="M1739.71 1958.96H1708.86C1712.53 1946.39 1716.01 1932.47 1719.31 1919.08C1722.29 1907.06 1723.8 1895.55 1726.78 1883.64H1739.67L1739.71 1958.96ZM1756.26 1984.47V2009H1784.92V1958.94H1771.49V1858.27H1702.86C1699.36 1876.29 1696.74 1889.08 1692.73 1906.64C1688.27 1924.38 1684.73 1941.42 1678.18 1959.14H1669.58V2009H1698.38V1984.47H1756.26ZM1581.79 1857.63V1984.15H1652.64V1958.46H1613.57V1932.43H1652.64V1907.96H1613.57V1882.12H1652.64V1857.63H1581.79ZM1524.17 1919.98V1984.23H1553.31V1857.63H1515.74L1483.14 1927.01L1452.2 1857.63H1413.11V1984.15H1442.23V1919.98C1441.91 1910.99 1441.03 1902.03 1439.59 1893.15C1442.19 1900.58 1445.29 1907.82 1448.87 1914.83L1482.9 1986.53L1517.34 1914.83C1520.99 1907.81 1524.13 1900.54 1526.73 1893.07C1525.3 1901.97 1524.44 1910.96 1524.17 1919.98ZM1324.7 1958.38C1305.17 1958.38 1290.78 1943.16 1290.78 1920.96C1290.78 1898.75 1304.99 1883.52 1324.7 1883.52C1344.42 1883.52 1358.47 1898.77 1358.47 1920.96C1358.47 1943.14 1344.4 1958.3 1324.7 1958.3V1958.38ZM1324.7 1855.23C1305.81 1855.23 1289.6 1861.51 1277.19 1873.93C1265.18 1885.94 1258.65 1902.26 1258.65 1920.96C1258.65 1939.66 1265.12 1955.72 1277.35 1967.99C1289.58 1980.27 1305.99 1986.73 1324.7 1986.73C1343.42 1986.73 1359.79 1980.25 1372.04 1967.99C1384.29 1955.74 1390.77 1939.66 1390.77 1920.96C1390.77 1902.26 1384.31 1885.94 1372.04 1873.93C1359.63 1861.43 1343.74 1855.15 1324.7 1855.15V1855.23ZM1156.46 1857.63V1984.15H1200.31C1228.43 1984.15 1243.18 1971.06 1243.18 1947.07C1243.18 1932.65 1236.08 1922.72 1223.65 1918.9C1234.58 1913.59 1240.36 1903.98 1240.36 1891.57C1240.36 1871.02 1226.15 1857.53 1202.63 1857.53L1156.46 1857.63ZM1193.35 1910.13H1185.74V1879.93H1190.7C1203.95 1879.93 1210.08 1883.6 1210.08 1894.99C1209.98 1904.82 1204.19 1910.13 1193.25 1910.13H1193.35ZM1196.01 1960.3H1185.74V1928.67H1193.35C1205.45 1928.67 1211.88 1934.11 1211.88 1944.39C1211.78 1954.02 1205.84 1960.3 1195.91 1960.3H1196.01ZM1068.03 1958.3C1048.52 1958.3 1034.11 1943.08 1034.11 1920.88C1034.11 1898.67 1048.36 1883.44 1068.03 1883.44C1087.71 1883.44 1101.8 1898.69 1101.8 1920.88C1101.8 1943.06 1087.63 1958.3 1067.93 1958.3H1068.03ZM1068.03 1855.15C1049.18 1855.15 1032.95 1861.43 1020.52 1873.85C1008.51 1885.86 1001.99 1902.18 1001.99 1920.88C1001.99 1939.58 1008.45 1955.64 1020.68 1967.91C1032.91 1980.19 1049.34 1986.65 1068.03 1986.65C1086.73 1986.65 1103.12 1980.17 1115.37 1967.91C1127.62 1955.66 1134.1 1939.58 1134.1 1920.88C1134.1 1902.18 1127.54 1885.94 1115.27 1873.93C1102.86 1861.43 1086.99 1855.15 1067.93 1855.15H1068.03ZM875.693 1857.63V1984.15H907.476V1932.81H947.866V1984.15H979.649V1857.63H947.766V1907.14H907.376V1857.63H875.693Z" fill="white"/>
<path fill-rule="evenodd" clip-rule="evenodd" d="M739.893 1920.92H800.778C802.775 1920.92 804.692 1921.71 806.106 1923.12C807.521 1924.53 808.318 1926.45 808.323 1928.45V2012.08C808.318 2014.09 807.523 2016.01 806.11 2017.43C804.697 2018.85 802.781 2019.65 800.778 2019.67H739.893V2046.02C739.888 2048.02 739.091 2049.94 737.677 2051.35C736.263 2052.77 734.347 2053.56 732.347 2053.57H719.438V2101C719.433 2103 718.636 2104.92 717.223 2106.34C715.81 2107.76 713.894 2108.56 711.892 2108.57H628.351C626.346 2108.56 624.425 2107.76 623.007 2106.35C621.589 2104.93 620.791 2103.01 620.785 2101V2053.51H607.916C605.913 2053.51 603.991 2052.71 602.573 2051.3C601.155 2049.88 600.356 2047.96 600.35 2045.96V2019.61H539.486C537.501 2019.58 535.607 2018.78 534.207 2017.37C532.808 2015.97 532.016 2014.07 532 2012.08V1928.45C532.003 1927.46 532.2 1926.48 532.582 1925.56C532.964 1924.65 533.522 1923.82 534.224 1923.12C534.927 1922.42 535.76 1921.86 536.676 1921.49C537.593 1921.11 538.575 1920.92 539.566 1920.92H600.43V1894.55C600.43 1892.54 601.227 1890.61 602.645 1889.19C604.063 1887.77 605.988 1886.97 607.996 1886.96H620.865V1839.53C620.881 1837.53 621.685 1835.62 623.101 1834.21C624.518 1832.8 626.433 1832.01 628.431 1832H711.972C713.968 1832.01 715.882 1832.8 717.295 1834.21C718.708 1835.62 719.507 1837.53 719.518 1839.53V1886.96H732.427C734.432 1886.97 736.351 1887.78 737.765 1889.2C739.179 1890.62 739.973 1892.54 739.973 1894.55L739.893 1920.92Z" fill="white"/>
<path fill-rule="evenodd" clip-rule="evenodd" d="M628.371 1839.53H711.912V1928.45H800.778V2012.02H711.912V2100.94H628.371V2012.02H539.486V1928.45H628.371V1839.53Z" fill="#DF091A"/>
<path fill-rule="evenodd" clip-rule="evenodd" d="M655.791 1944.01H684.432V1894.55C684.463 1891.94 685.509 1889.45 687.348 1887.6C689.187 1885.76 691.674 1884.7 694.279 1884.66H732.307C734.913 1884.7 737.399 1885.76 739.238 1887.6C741.077 1889.45 742.124 1891.94 742.154 1894.55V2045.96C742.154 2048.57 741.117 2051.08 739.27 2052.92C737.424 2054.77 734.919 2055.81 732.307 2055.81H694.279C691.668 2055.81 689.163 2054.77 687.316 2052.92C685.469 2051.08 684.432 2048.57 684.432 2045.96V1994.36H655.791V2045.96C655.791 2048.57 654.754 2051.08 652.907 2052.92C651.06 2054.77 648.555 2055.81 645.944 2055.81H607.916C605.302 2055.81 602.796 2054.77 600.946 2052.93C599.096 2051.08 598.054 2048.57 598.049 2045.96V1894.55C598.08 1891.94 599.129 1889.44 600.972 1887.6C602.815 1885.75 605.307 1884.7 607.916 1884.66H645.944C648.549 1884.7 651.036 1885.76 652.875 1887.6C654.714 1889.45 655.76 1891.94 655.791 1894.55V1944.01Z" fill="white"/>
<path fill-rule="evenodd" clip-rule="evenodd" d="M607.916 1894.53V2045.96H645.964V1984.53H694.299V2045.96H732.347V1894.53H694.299V1953.8H645.964V1894.53H607.916Z" fill="#12448D"/>
<defs>
<linearGradient id="paint0_linear_601_2" x1="-3.88593e-05" y1="86.5791" x2="2841.23" y2="3446.05" gradientUnits="userSpaceOnUse">
<stop stop-color="#004192"/>
<stop offset="1" stop-color="#1F1D7E"/>
</linearGradient>
</defs>
</svg>
